<svg xmlns="http://www.w3.org/2000/svg" width="664" height="165" xmlns:v="https://vecta.io/nano"><path d="M175.1 95.4c7.29 0 13.2-5.91 13.2-13.2S182.39 69 175.1 69s-13.2 5.91-13.2 13.2 5.91 13.2 13.2 13.2zM33.988 48.654c.518-7.272-4.96-13.586-12.23-14.103S8.172 39.511 7.654 46.782s4.96 13.586 12.231 14.103 13.586-4.96 14.103-12.231zM86 130c7.29 0 13.2-5.91 13.2-13.2s-5.91-13.2-13.2-13.2-13.2 5.91-13.2 13.2S78.71 130 86 130z"/><linearGradient id="A" gradientUnits="userSpaceOnUse" x1="-1.186" y1="99.5" x2="180.419" y2="99.5"><stop offset="0" stop-color="#00b4eb"/><stop offset="1" stop-color="#3b56a6"/></linearGradient><path fill="url(#A)" d="M136.1 164.3H52.2c-7.2 0-13-5.8-13-13s5.8-13 13-13h83.9c7.2 0 13 5.8 13 13s-5.8 13-13 13zm-14.5-82.1c0-7.2-5.8-13-13-13H13c-7.2 0-13 5.8-13 13s5.8 13 13 13h95.6c7.2 0 13-5.9 13-13zm59.1-34.5c0-7.2-5.801-13-13-13h-47.1c-7.2 0-13 5.8-13 13s5.8 13 13 13h47.1c7.2 0 13-5.8 13-13zm-160 82.1h12.8c7.2 0 13-5.8 13-13s-5.8-13-13-13H20.7c-7.2 0-13 5.8-13 13 0 7.1 5.8 13 13 13h0z"/><path d="M59.6 130c7.29 0 13.2-5.91 13.2-13.2s-5.91-13.2-13.2-13.2-13.2 5.91-13.2 13.2S52.31 130 59.6 130zm49.9-103.6c7.29 0 13.2-5.91 13.2-13.2S116.79 0 109.5 0 96.3 5.91 96.3 13.2s5.91 13.2 13.2 13.2zm26.4 0c7.29 0 13.2-5.91 13.2-13.2S143.19 0 135.9 0s-13.2 5.91-13.2 13.2 5.91 13.2 13.2 13.2z"/><linearGradient id="B" gradientUnits="userSpaceOnUse" x1="33.513" y1="65" x2="179.883" y2="65"><stop offset="0" stop-color="#044da9"/><stop offset="1" stop-color="#003274"/></linearGradient><path fill="url(#B)" d="M148.9 95.2h-14.3c-7.2 0-13-5.8-13-13s5.8-13 13-13h14.3c7.2 0 13 5.8 13 13 0 7.1-5.8 13-13 13zm-41.3-47.5c0-7.2-5.8-13-13-13H47c-7.2 0-13 5.8-13 13s5.8 13 13 13h47.6c7.2 0 13-5.8 13-13zm4.6 82.1h55.5c7.199 0 13-5.8 13-13s-5.801-13-13-13h-55.5c-7.2 0-13 5.8-13 13 0 7.1 5.8 13 13 13zM96.4 13.2c0-7.2-5.8-13-13-13H52.3c-7.2 0-13 5.8-13 13s5.8 13 13 13h31.1c7.1 0 13-5.8 13-13z"/><path d="M314.699 24.8l-17.6 48.1h-8.5l-14.2-38.8L260.2 73h-8.5L234 24.8h8.8l13.3 38.5 14.3-38.5h8.101l14.2 38.5L306 24.8h8.699zm1.601 24c0-15.9 11.399-25.5 29.899-25.5s29.9 9.6 29.9 25.5-11.4 25.5-29.9 25.5S316.3 64.7 316.3 48.8zm51.3 0c0-11.7-8.4-18.2-21.5-18.2s-21.5 6.5-21.5 18.2S333 67 346.1 67c13.099.1 21.5-6.5 21.5-18.2zm60.599 24.1L413.3 55.4H393v17.5h-8.2V24.8h32.7c11.199 0 19.5 5.4 19.5 15.3 0 8.3-5.801 13.4-14.2 14.9l15.6 17.9h-10.201 0zM416.9 48.3c6.9 0 11.5-2.2 11.5-8.2s-4.7-8.2-11.5-8.2h-24v16.4h24zm73.6 17.3v7.3h-43.7V24.8h8.2v40.9h35.5v-.1zm61.3-16.8c0 14.9-11.4 24.1-29.3 24.1h-24.4V24.8h24.4c17.9 0 29.3 9.2 29.3 24zm-8.4 0c0-11.1-8.8-16.9-21.5-16.9h-15.5v33.7h15.5c12.7.1 21.5-5.6 21.5-16.8z"/><path fill="#0282c6" d="M279 128.7h-30.9l-6.1 11.6h-8.9l26.1-48.1h9.1l26 48.1h-9l-6.3-11.6h0zm-3.7-7.1l-11.8-22.3-11.8 22.3h23.6zm69.6 14.8l6.7 7.199-4.8 4.301-7.8-8.5c-4.101 1.6-8.801 2.3-14.2 2.3-18.5 0-29.9-9.601-29.9-25.5s11.4-25.5 29.9-25.5 29.899 9.6 29.899 25.5c.101 8.8-3.399 15.8-9.799 20.2h0zm-11.5-3.1l-7.1-7.7 4.8-4.3 8.5 9.101c4.3-3.101 6.8-8 6.8-14.301 0-11.699-8.4-18.199-21.5-18.199s-21.5 6.5-21.5 18.199 8.4 18.2 21.5 18.2c3 .1 5.9-.2 8.5-1h0zm81.5-41.2v25.4c0 14.2-9.1 24.1-26.2 24.1-17 0-26.1-9.899-26.1-24.1V92.1h8.2V117c0 10.8 6.399 17.3 17.899 17.3s18-6.5 18-17.3V92.1h8.201zm48.1 36.6h-30.9l-6.1 11.6h-8.9l26.1-48.1h9.101l26 48.1h-9L463 128.7h0zm-3.6-7.1l-11.8-22.3-11.8 22.3h23.6 0zm63-22.2h-22v40.9h-8.2V99.4h-21.8v-7.2h52v7.2h0zm9 40.9V92.2h8.2v48.1h-8.2zm64.799-14.4l7.601 3.8c-4.5 7-13.3 12-25.5 12-18 0-29.4-9.7-29.4-25.5s11.3-25.5 29.7-25.5c11.8 0 20.6 5.1 25.1 12l-7.7 3.899c-3.6-5.899-9.699-8.5-17.5-8.5-12.699 0-21.199 6.2-21.199 18.2s8.5 18.2 21.199 18.2c7.9-.099 13.999-2.599 17.699-8.599h0zm67 .1c0 9.1-9 15.7-25.399 15.7-11.3 0-21.2-3.3-28.8-9.8l5.199-5.9c6.5 5.9 14.2 8.5 23.9 8.5 10.7 0 16.6-2.8 16.6-7.8 0-4.9-6-6.2-18.199-7.3-13.301-1.101-25.801-4.101-25.801-13.9 0-9.6 11.101-14.9 24.9-14.9 10.5 0 19.3 3.101 25.1 8l-5.199 5.6c-5-4.3-11.801-6.4-19.7-6.5-7.601-.101-16.7 1.8-16.7 7.1 0 5.101 8 6 18.6 6.8 15.1 1.4 25.499 4.4 25.499 14.4h0z"/></svg>